<?xml version="1.0" encoding="UTF-8"?>
<svg id="Ebene_1" data-name="Ebene 1" xmlns="http://www.w3.org/2000/svg" viewBox="0 0 269.25 69.76">
  <defs>
    <style>
      .cls-1 {
        fill: #1b3969;
      }
    </style>
  </defs>
  <path class="cls-1" d="M46.13,52.26c-.95.51-1.7.83-2.27.95-.57.12-1.04.01-1.44-.33-.39-.34-.81-.93-1.27-1.77l-10.83-19.93c-.45-.83-.71-1.5-.78-2-.07-.5.1-.96.5-1.39.4-.42,1.08-.89,2.02-1.41.09-.05.08-.16-.01-.33s-.18-.23-.27-.19c-.75.41-1.62.91-2.61,1.5-1,.6-2.01,1.18-3.04,1.74-1.32.72-2.47,1.32-3.46,1.8-.99.48-1.85.92-2.6,1.33-.09.05-.08.16.01.33.09.17.18.23.27.19,1.03-.56,1.85-.9,2.47-1.01.61-.11,1.11,0,1.5.35s.81.93,1.27,1.77l4.75,8.74-13.91,7.56-4.75-8.74c-.45-.83-.71-1.51-.77-2.03-.06-.52.12-1.01.54-1.47.42-.45,1.14-.95,2.14-1.5.06-.03.04-.13-.05-.31-.09-.17-.17-.24-.23-.21-.8.44-1.69.95-2.66,1.53-.97.58-2.11,1.23-3.43,1.95-1.03.56-2.04,1.08-3.01,1.55s-1.83.91-2.58,1.32c-.09.05-.08.16.01.33.09.17.18.23.27.19.95-.51,1.7-.82,2.26-.92.56-.1,1.03.02,1.42.35.38.33.8.91,1.25,1.74l10.83,19.93c.45.83.71,1.51.77,2.03.06.52-.1.99-.5,1.39-.4.4-1.08.87-2.06,1.4-.06.03-.04.13.05.31.09.17.17.24.23.21.75-.41,1.6-.89,2.56-1.45.96-.56,1.96-1.12,2.99-1.68,1.32-.72,2.48-1.33,3.47-1.83.99-.5,1.9-.98,2.74-1.43.06-.03.04-.13-.05-.3-.09-.17-.17-.24-.23-.21-1,.55-1.8.89-2.4,1.02-.59.14-1.09.04-1.5-.3s-.84-.92-1.29-1.75l-5.38-9.9,13.91-7.56,5.38,9.9c.45.83.72,1.51.79,2.02.08.52-.1.99-.54,1.41-.44.42-1.17.92-2.21,1.48-.09.05-.08.16.01.33.09.17.18.23.27.19.75-.41,1.59-.88,2.54-1.44.95-.55,2.08-1.19,3.4-1.9,1.03-.56,2.07-1.1,3.1-1.63,1.03-.52,1.92-.99,2.67-1.4.09-.05.08-.16-.01-.33-.09-.17-.18-.23-.27-.19Z"/>
  <path class="cls-1" d="M63.86,42.94c-.15-.08-.25-.08-.29,0-.5.69-1.12,1.31-1.88,1.85-.75.54-1.49.96-2.22,1.25-1.46.58-2.84.72-4.15.43-1.31-.29-2.49-.96-3.54-2.02-1.05-1.06-1.92-2.44-2.59-4.14-.28-.69-.47-1.35-.62-1.98l8.16-3.33h0l2.78-1.1c.21-.08.29-.27.25-.57-.05-.3-.14-.61-.27-.95-.55-1.4-1.49-2.3-2.81-2.71-1.32-.41-2.92-.24-4.81.51-1.97.78-3.57,1.92-4.78,3.43-1.21,1.5-1.99,3.17-2.31,5-.33,1.83-.13,3.65.58,5.44.6,1.52,1.53,2.81,2.78,3.88,1.25,1.07,2.73,1.74,4.43,2.01,1.71.27,3.55.02,5.52-.77,1.34-.53,2.5-1.26,3.48-2.2s1.81-2.19,2.49-3.76c.02-.12-.04-.21-.19-.29ZM48.34,34.84c.26-1.56,1-2.58,2.21-3.06,1.03-.41,1.93-.23,2.69.54.58.59,1.09,1.38,1.52,2.36l-6.4,2.71c-.14-.92-.15-1.77-.02-2.55Z"/>
  <path class="cls-1" d="M62.37,20.43c.67.33,1.44.36,2.32.09,1.81-.57,2.41-1.81,1.8-3.71-.26-.81-.7-1.38-1.32-1.71-.62-.33-1.37-.36-2.24-.08-.87.28-1.49.74-1.85,1.38-.36.65-.41,1.37-.15,2.18.29.9.77,1.52,1.44,1.86Z"/>
  <path class="cls-1" d="M76.77,41.51c-.97.31-1.7.29-2.2-.05-.5-.34-.95-1.13-1.35-2.37l-2.69-8.45c-.52-1.62-.9-2.87-1.14-3.75-.25-.88-.43-1.51-.55-1.88-.04-.12-.16-.24-.37-.35-.21-.11-.39-.13-.54-.08-.03.01-.07.04-.12.09l-6.01,5.51c-.08.06-.06.17.08.33.14.16.26.21.38.14.29-.26.57-.49.84-.68.27-.19.51-.32.73-.39.53-.17.97-.04,1.33.37.36.42.7,1.14,1.02,2.17l2.66,8.36c.4,1.25.5,2.15.3,2.71-.2.56-.78.99-1.75,1.3-.09.03-.11.14-.05.32.06.19.14.27.23.24.62-.2,1.33-.44,2.13-.73.8-.29,1.63-.57,2.51-.85.9-.29,1.76-.54,2.58-.77.82-.23,1.54-.44,2.16-.64.09-.03.11-.14.05-.32-.06-.19-.14-.27-.23-.24Z"/>
  <path class="cls-1" d="M100.94,35.53c-.86.2-1.77.15-2.73-.16-.96-.31-2.04-.94-3.24-1.9l-8.53-6.84,1.37-1.99c.79-1.19,1.69-2.22,2.7-3.08,1.01-.86,2.03-1.55,3.06-2.08,1.03-.53,1.95-.89,2.74-1.07.1-.02.12-.13.08-.32s-.12-.27-.21-.25c-.7.16-1.44.35-2.21.57-.77.22-1.81.48-3.11.78-1.43.34-2.57.59-3.42.76-.85.17-1.69.35-2.52.54-.06.02-.07.12-.03.31s.1.28.16.26c1.11-.26,1.81.02,2.09.84.28.82.07,1.75-.63,2.79l-3.43,5.32-5.69-24.16c-.03-.13-.15-.24-.36-.34-.21-.1-.39-.13-.55-.1-.06.01-.14.05-.23.1l-6.19,4.93c-.06.05-.01.15.13.32.14.17.25.23.34.17.68-.53,1.24-.85,1.69-.95.54-.13.96.03,1.27.48.31.45.59,1.21.84,2.29l5.71,24.23c.3,1.27.32,2.18.06,2.73-.26.55-.88.94-1.86,1.17-.06.02-.07.12-.03.31s.1.28.16.26c.64-.15,1.36-.34,2.18-.56.82-.23,1.69-.45,2.61-.67.92-.22,1.79-.4,2.61-.56.82-.16,1.54-.31,2.18-.46.13-.03.17-.14.12-.33-.04-.19-.13-.27-.26-.24-.99.23-1.72.16-2.19-.21-.47-.37-.86-1.2-1.16-2.47l-1.13-4.81.71-1.04,7.08,5.68c.54.44.74.88.61,1.32-.13.43-.63.75-1.49.95-.1.02-.12.13-.08.32.04.19.11.27.21.25.76-.18,1.61-.4,2.54-.65.93-.25,2.03-.53,3.3-.83.92-.22,1.8-.41,2.63-.57.83-.16,1.57-.32,2.21-.47.1-.02.12-.13.08-.32-.04-.19-.11-.27-.21-.25Z"/>
  <path class="cls-1" d="M117.53,30.7c-.65.56-1.4,1.01-2.25,1.36-.86.35-1.67.59-2.45.7-1.55.22-2.93.04-4.14-.54-1.21-.59-2.2-1.52-2.97-2.79-.78-1.27-1.29-2.82-1.55-4.63-.11-.74-.14-1.42-.14-2.08l8.71-1.33h0s2.96-.42,2.96-.42c.23-.03.35-.2.37-.5.02-.3,0-.63-.04-.98-.21-1.49-.92-2.58-2.1-3.29-1.19-.7-2.79-.91-4.79-.62-2.1.3-3.92,1.04-5.45,2.22-1.53,1.18-2.67,2.62-3.41,4.33-.75,1.71-.98,3.52-.71,5.42.23,1.62.83,3.09,1.8,4.42.97,1.33,2.25,2.33,3.84,2.99s3.45.84,5.55.54c1.42-.2,2.72-.65,3.89-1.33,1.17-.68,2.27-1.7,3.3-3.07.05-.11,0-.22-.12-.33-.13-.11-.23-.13-.28-.06ZM107.47,16.8c1.1-.16,1.93.23,2.49,1.15.43.71.74,1.59.93,2.65l-6.86,1.14c.07-.93.26-1.75.57-2.49.62-1.46,1.57-2.28,2.86-2.46Z"/>
  <path class="cls-1" d="M165.2,32.48c-.81-.24-2.04-.83-3.69-1.76-1.62-.91-3.55-2.24-5.79-3.96.7-1.15,1.27-2.31,1.71-3.46.45-1.18.81-2.25,1.09-3.19.28-.94.54-1.68.8-2.22.25-.53.63-.91,1.12-1.13.49-.22,1.23-.32,2.21-.3.1,0,.15-.1.15-.29,0-.2-.04-.29-.14-.3l-11.66-.16c-.1,0-.14.1-.13.29.01.2.05.29.12.3,1.44.03,2.45.49,3.04,1.38.59.89.87,2.27.83,4.13-.03,1.42-.2,2.69-.51,3.82-1.31-1.09-2.61-2.24-3.88-3.5-1.69-1.66-3.21-3.41-4.56-5.23-.42-.57-.81-1.14-1.17-1.71.23-.15.46-.31.7-.46,1.26-.79,2.45-1.61,3.57-2.44,1.13-.83,2.05-1.74,2.77-2.74.72-1,1.09-2.15,1.12-3.46.02-1.04-.23-1.93-.76-2.66-.53-.73-1.27-1.3-2.25-1.71-.97-.41-2.13-.63-3.47-.65-1.96-.04-3.65.33-5.07,1.08-1.42.76-2.52,1.82-3.29,3.18-.78,1.36-1.18,2.9-1.21,4.63-.02,1.05.09,1.99.34,2.82.25.84.57,1.67.98,2.49.41.79.91,1.6,1.47,2.42-.99.71-1.95,1.43-2.85,2.14-1.11.88-2.02,1.82-2.72,2.82-.7,1-1.07,2.14-1.09,3.41-.02,1.14.32,2.26,1.02,3.35.7,1.09,1.8,1.99,3.31,2.71,1.51.71,3.44,1.09,5.79,1.13,2.22.04,4.14-.23,5.75-.8,1.42-.51,2.64-1.19,3.68-2.03.31.23.61.45.88.64.98.69,1.77,1.17,2.35,1.44.58.27,1.05.41,1.41.42,1.5.03,2.96.05,4.38.08,1.42.03,2.64.05,3.65.07.1,0,.16-.09.18-.27.02-.18-.04-.29-.17-.32ZM142.16,3.22c.4-.6,1.06-.89,1.98-.87,1.04.02,1.9.44,2.57,1.25.67.81.99,1.95.97,3.42-.03,1.54-.4,2.9-1.1,4.1-.65,1.1-1.48,2.11-2.48,3.04-.54-.93-1.02-1.87-1.42-2.82-.8-1.88-1.18-3.71-1.15-5.51.02-1.14.23-2.01.64-2.61ZM150.39,30.37c-.99.39-2.15.57-3.49.55-1.89-.03-3.51-.42-4.86-1.17-1.34-.74-2.36-1.68-3.06-2.82-.7-1.14-1.04-2.33-1.01-3.57.02-1.31.4-2.46,1.12-3.46.34-.47.73-.92,1.16-1.36.3.4.62.81.95,1.22,1.26,1.54,2.63,3.03,4.11,4.46,1.48,1.43,2.89,2.72,4.24,3.85.75.62,1.44,1.17,2.05,1.65-.37.25-.77.47-1.21.64Z"/>
  <path class="cls-1" d="M203.47,9.31c.06-.29-.08-.46-.4-.53l-20.39-3.99c-.1-.02-.16.07-.2.26-.04.19,0,.3.09.32.99.19,1.71.43,2.16.7.45.27.7.65.77,1.15.07.5.01,1.21-.17,2.14l-4.36,22.26c-.18.93-.4,1.62-.65,2.07-.25.45-.64.71-1.15.77-.51.07-1.27,0-2.26-.19-.1-.02-.16.07-.2.26s0,.3.09.32l21.25,4.16c.48.09.77-.1.86-.58.21-1.09.49-2.26.84-3.51.34-1.25.67-2.32.98-3.23.01-.06-.07-.14-.23-.22-.17-.08-.28-.08-.33.01-1.13,2.01-2.54,3.38-4.25,4.11-1.71.73-3.81.85-6.31.36l-1.59-.31c-.51-.1-.91-.28-1.19-.53-.28-.25-.46-.61-.54-1.05-.08-.45-.06-.98.06-1.59l2.13-10.87,3.94.77c1.92.38,3.31,1.04,4.15,1.99.85.95,1.14,2.08.88,3.39-.01.06.08.11.27.15.19.04.29.02.31-.04.18-.93.32-1.78.43-2.56.1-.78.23-1.57.39-2.37.13-.64.25-1.26.39-1.85.13-.59.3-1.41.51-2.47.02-.1-.06-.16-.24-.2-.18-.03-.27,0-.29.09-.22,1.12-.88,1.92-1.99,2.38-1.11.47-2.61.51-4.5.14l-3.99-.78,1.92-9.81c.11-.58.3-1.04.57-1.39.27-.35.63-.57,1.08-.66.45-.09,1-.08,1.64.05l1.44.28c1.99.39,3.5,1.14,4.55,2.26,1.05,1.12,1.64,2.68,1.78,4.67.04.11.15.16.32.16.17,0,.26-.03.27-.1l1.16-6.41Z"/>
  <path class="cls-1" d="M225.81,33.37c.54-1.71.5-3.27-.11-4.65-.61-1.39-1.79-2.36-3.53-2.9-1.62-.51-3.27-.5-4.94.02-1.15.36-2.28.9-3.39,1.59.3-1.12.42-2.06.33-2.78-.11-.86-.34-1.34-.68-1.44-.03,0-.15-.01-.36,0l-7.5,1.15c-.07.01-.11.12-.1.33,0,.21.08.3.22.27.54-.07,1.01-.1,1.42-.1.41,0,.75.06,1.03.14.53.17.83.51.91,1.03.08.52-.04,1.26-.34,2.23l-2.75,8.79c-.39,1.25-.83,2.04-1.31,2.39-.48.34-1.21.37-2.18.06-.09-.03-.17.05-.23.24s-.04.29.05.32c.62.19,1.35.4,2.17.63.82.22,1.67.47,2.54.74.9.28,1.76.57,2.56.85.8.28,1.51.52,2.14.72.09.03.17-.05.23-.24.06-.19.04-.3-.05-.32-.97-.3-1.56-.74-1.78-1.3-.22-.56-.13-1.47.26-2.72l3.12-9.98c.57-.25,1.17-.44,1.84-.53,1.13-.16,2.16-.09,3.1.2,1.31.41,2.14,1.12,2.5,2.12.35,1,.27,2.34-.26,4.03l-2.11,6.73c-.39,1.25-.83,2.04-1.31,2.39-.48.35-1.21.37-2.18.06-.09-.03-.17.05-.23.24s-.04.3.05.32c.62.2,1.34.4,2.17.63.82.22,1.67.47,2.54.74.9.28,1.76.57,2.56.85.8.29,1.51.52,2.14.72.09.03.17-.05.23-.24s.04-.29-.05-.32c-.97-.3-1.56-.74-1.78-1.3-.22-.56-.13-1.47.26-2.72l2.81-8.98Z"/>
  <path class="cls-1" d="M243.83,48.05c-.17-.07-.28-.07-.35.01-.55.8-1.21,1.42-1.98,1.85-.77.44-1.65.7-2.64.78-.99.08-2.09-.01-3.31-.28s-2.56-.71-4.04-1.33c-.24-.1-.27-.24-.09-.41l16.93-11.43c.11-.09.15-.22.13-.37-.03-.15-.11-.26-.26-.32-2.26-.95-4.26-1.79-6.01-2.53-1.75-.73-3.21-1.35-4.38-1.84-.93-.39-1.54-.77-1.81-1.13-.27-.36-.19-.84.23-1.44.1-.06.06-.15-.1-.26-.17-.11-.28-.14-.33-.09l-4.88,6.29c-.07.08-.03.17.13.27.15.1.26.13.31.08.86-.95,1.86-1.59,3.01-1.92,1.15-.33,2.44-.4,3.86-.21,1.43.19,2.94.62,4.53,1.29.27.11.3.25.09.41l-16.76,11.66c-.11.09-.15.22-.13.37.02.15.1.25.22.3,1.48.62,3.07,1.29,4.79,2.01s3.44,1.45,5.17,2.17c1.73.73,3.33,1.4,4.81,2.02.15.06.29.06.41-.02.12-.07.2-.17.26-.29l2.39-5.43c.04-.09-.03-.17-.19-.24Z"/>
  <path class="cls-1" d="M266.29,46.75c-.85-1.56-2.2-2.84-4.05-3.82-1.1-.58-2.3-1-3.61-1.25-1.31-.25-2.63-.28-3.96-.08-1.33.2-2.57.7-3.73,1.48-1.16.79-2.14,1.93-2.94,3.43-.86,1.62-1.3,3.31-1.32,5.1-.02,1.78.41,3.44,1.29,4.99.88,1.54,2.23,2.8,4.05,3.76,1.7.91,3.47,1.37,5.3,1.41,1.83.03,3.55-.39,5.14-1.26,1.59-.87,2.86-2.19,3.79-3.95.81-1.53,1.23-3.15,1.26-4.88.03-1.72-.38-3.37-1.23-4.93ZM262.71,49.84c-.22,1.7-.89,3.6-2.01,5.7-1.09,2.05-2.22,3.48-3.4,4.3-1.18.82-2.34.92-3.49.31-1.01-.54-1.72-1.43-2.12-2.68-.41-1.25-.46-2.75-.16-4.5.3-1.75.97-3.6,2.01-5.56,1.12-2.1,2.24-3.51,3.37-4.2,1.13-.69,2.25-.74,3.38-.15.92.49,1.61,1.32,2.06,2.49.45,1.17.57,2.6.35,4.29Z"/>
</svg>