<?xml version="1.0" encoding="UTF-8"?>
<svg id="Ebene_3" data-name="Ebene 3" xmlns="http://www.w3.org/2000/svg" viewBox="0 0 533.42 283.68">
  <defs>
    <style>
      .cls-1 {
        fill: #c6a667;
        stroke: #c6a667;
        stroke-miterlimit: 10;
        stroke-width: .5px;
      }
    </style>
  </defs>
  <path class="cls-1" d="M521.55,131.58s1.45-3.07-1.63-.88l-4.11,3.45s-1.33,1.24.47-2.45c0,0,3.22-6.95,4.12-10.6,0,0,1.8-6.39-4.55-2.15-.04.02-.07.04-.11.06-.1.06-.21.12-.31.18-.16.1-.33.2-.49.29-.22.13-.44.26-.66.39-.27.16-.54.32-.8.48-.31.19-.62.38-.93.56-.35.21-.69.42-1.04.63-.38.23-.76.46-1.13.69-.4.25-.8.49-1.21.74s-.84.52-1.26.78-.87.54-1.3.81-.88.55-1.32.83-.88.56-1.32.84-.87.55-1.3.83-.84.55-1.26.82-.81.53-1.21.8c-.38.25-.76.51-1.14.77-1.18.8-2.38,1.6-3.44,2.55-.31.27-.61.57-.96.78-.38.23-.83.32-1.27.36-1.57.11-2.71-.98-3.91-1.8-.87-.59-1.76-1.16-2.67-1.71-1.2-.72-2.43-1.4-3.7-2.01s-2.59-1.15-3.95-1.49c-.75-.19-1.54-.34-2.32-.3,0,0-1.94.07-.49-1.56,0,0,1.38-1.27-1.1-2.4,0,0-11.38-4.32-16.73-3.68l2.24-2.84c.14-.18.26-.39.32-.61.06-.23.02-.47-.19-.61-.27-.19-.64-.13-.95-.14-.98-.01-1.96-.02-2.93-.02-.74,0-1.48-.01-2.22-.01-.87,0-1.74,0-2.61,0-.96,0-1.91,0-2.87,0s-1.99.01-2.99.03-1.98.03-2.96.05c-.93.02-1.87.05-2.8.09-1.17.05-2.34.11-3.51.2s-2.3.29-3.45.29c-.25,0-.5,0-.75-.02-1.52-.09-2.96-.58-4.45-.82-.43-.07-.86-.14-1.29-.2-1.15-.17-2.31-.32-3.46-.45-1.44-.16-2.88-.3-4.33-.4-1.61-.11-3.21-.19-4.82-.21-2.39-.03-4.8.03-7.17.34-2.05.26-3.99.79-5.95,1.43-.63.2-1.24.38-1.91.37-.47,0-.93-.08-1.37-.23-.37-.12-.88-.29-.93-.74-.03-.29.16-.56.34-.76.38-.44.88-.78,1.37-1.09,0,0,.98-.69-.98-1.13,0,0-2.06-.34.39-2.2,0,0,2.55-2.11,3.43-4.46,0,0,1.13-2.6-4.46-2.69-1.19-.02-2.38.05-3.56.16-1.54.14-3.08.35-4.6.63-1.73.31-3.45.7-5.15,1.17s-3.5,1.08-5.19,1.78c-2.18.92-4.37,2.02-6.2,3.54-.74.62-1.45,1.28-2.23,1.84-1.01.73-2.12,1.28-3.18,1.91s-2.22,1.28-3.35,1.9c-1.26.69-2.5,1.41-3.79,2.04s-2.59,1.13-3.8,1.86c-2,1.19-3.8,2.82-5.57,4.32s-3.62,3.19-5.34,4.89c-2.24,2.22-4.39,4.52-6.4,6.95-3.09,3.72-5.72,7.82-8.48,11.79-1.34,1.93-2.7,3.87-4.38,5.51-.14.14-.37.29-.53.17-.12-.09-.12-.28-.09-.43.17-.96.56-1.87.95-2.76,1.54-3.44,3.4-6.72,4.91-10.17,1.25-2.84,2.36-5.74,3.34-8.68,4.55-13.68,7.45-29.85.31-43.18-2.38-4.44-5.48-8.46-8.95-12.1,0,0-18.1-19.06-42.18-8.72,0,0-16.17,8.11-16.82,17.89,0,0,.41,1.39-3.31,9.04,0,0-2.19,5.8,3.12,6.04,0,0-.16,8.21-3.26,14.97,0,0-2.04,3.52-2.27,8.06,0,0-.23,5.07,3.66,1.26,0,0,5.04-4.87,8.54-10.83,0,0,4.46-9.09,9.58-11.95,0,0,4.91-1.75,13.25-8.67,0,0,3.19-2.38,7.13-.18.65.29,1.28.63,1.89.99,1.37.78,2.68,1.68,3.87,2.72.63.55,1.22,1.14,1.74,1.79s.79,1.27,1.05,2.2c.43,1.55.58,3.33.67,4.94.11,1.9.16,3.8.06,5.7-.09,1.65-.67,6.64-1.94,11.15,0,0-6.14,20.08-24.67,35.56,0,0-18.39,13.17-20.98,21.23,0,0-1.39,4.74-.1,10.01.22.89.77,1.62,1.5,2.18,1.32,1,2.94,1.3,4.55,1.42,2.53.2,22.06,2.46,24.71,2.67,2.33.19,4.66.36,7,.43.92.03,1.85-.02,2.76.01,0,0,19.03.51,29.74,1.51,0,0,34.15,4.45,44.75,4.34,0,0,19.54.25,33.7-1.05,0,0,26.63-1.56,34.02-3.44.6-.11,1.2-.23,1.8-.36,1.41-.31,2.82-.65,4.2-1.05,1.63-.47,3.25-1,4.8-1.69,1.28-.57,2.63-1.24,3.6-2.28.33-.35.58-.69.72-1.26.15-.62.11-1.26.24-1.89.11-.57.29-1.1.71-1.52.39-.4,1.08-.59,1.72-.56,0,0,1.92.11,4.52.23.97.04,1.95.11,2.92.11,1.17,0,2.32-.15,3.45-.41,1.95-.43,3.74-.9,5.72-1.76.7-.31,1.36-.71,2.01-1.1s1.25-.78,1.87-1.18c1.61-1.05,3.19-2.16,4.7-3.35s2.99-2.47,4.26-3.93c.21-.24.38-.52.38-.85,0-.91-1.22-1.31-1.91-1.51-.22-.06-.42-.12-.62-.25-.12-.08-.23-.19-.26-.32-.09-.36.39-.62.65-.75.42-.22.87-.36,1.32-.5.88-.27,1.75-.59,2.61-.91.81-.3,1.62-.6,2.42-.91.94-.36,1.88-.74,2.8-1.13s1.91-.82,2.85-1.26c.86-.41,1.72-.84,2.55-1.31.2-.12.4-.24.6-.36.17-.1.4-.21.54-.35,3.66-2.47,7.76-6.32.75-5.15-.31.05-.43-.17-.22-.46.28-.39.48-.64.68-.96.33-.54.5-1.16.73-1.75.7-1.75,1.87-2.38,3.52-3.88.05-.04.1-.08.15-.12.14-.12.28-.25.41-.39.22-.22.43-.44.63-.67.28-.32.54-.65.8-.99.32-.43.63-.87.92-1.33.35-.55.69-1.11,1-1.69.18-.33.35-.66.51-.99.17-.35.33-.71.5-1.06.12-.23.22-.48.24-.74.01-.12.02-.25.01-.37-.01-.32-.09-.65-.25-.93-.21-.38-.56-.67-.95-.86-.27-.13-.56-.22-.85-.28,0,0-1.69-.28,1.05-3.74,0,0,1.72-2.4,2.96-5.45ZM280.2,84.77c-1.34,0-2.42-1.08-2.42-2.42s1.08-2.42,2.42-2.42,2.42,1.08,2.42,2.42-1.08,2.42-2.42,2.42Z"/>
  <path class="cls-1" d="M3.55,137.03c2.74,3.46,1.05,3.74,1.05,3.74-.29.06-.58.15-.85.28-.39.19-.74.48-.95.86-.16.28-.24.61-.25.93,0,.12,0,.25.01.37.03.26.12.5.24.74.18.35.33.71.5,1.06s.34.66.51.99c.31.57.64,1.14,1,1.69.29.45.6.9.92,1.33.25.34.52.67.8.99.2.23.41.46.63.67.13.13.27.26.41.39.05.04.1.08.15.12,1.65,1.51,2.82,2.13,3.52,3.88.23.59.4,1.21.73,1.75.19.32.4.57.68.96.21.29.09.51-.22.46-7-1.17-2.9,2.68.75,5.15.14.14.37.24.54.35.2.12.4.24.6.36.83.48,1.69.9,2.55,1.31.94.44,1.89.86,2.85,1.26s1.86.77,2.8,1.13c.8.31,1.61.62,2.42.91.87.32,1.73.64,2.61.91.45.14.9.28,1.32.5.26.13.74.39.65.75-.03.14-.15.24-.26.32-.19.13-.4.19-.62.25-.69.2-1.91.6-1.91,1.51,0,.33.17.61.38.85,1.27,1.46,2.74,2.74,4.26,3.93s3.09,2.3,4.7,3.35c.62.4,1.24.8,1.87,1.18s1.31.8,2.01,1.1c1.98.87,3.77,1.33,5.72,1.76,1.14.25,2.29.41,3.45.41.97,0,1.95-.07,2.92-.11,2.6-.12,4.52-.23,4.52-.23.64-.04,1.33.16,1.72.56.42.42.6.95.71,1.52.13.63.09,1.27.24,1.89.14.57.39.91.72,1.26.97,1.03,2.32,1.71,3.6,2.28,1.55.69,3.17,1.22,4.8,1.69,1.39.4,2.79.75,4.2,1.05.6.13,1.2.26,1.8.36,7.38,1.88,34.02,3.44,34.02,3.44,14.16,1.3,33.7,1.05,33.7,1.05,10.6.12,44.75-4.34,44.75-4.34,10.7-.99,29.74-1.51,29.74-1.51.92-.03,1.84.01,2.76-.01,2.34-.07,4.67-.24,7-.43,2.65-.22,22.18-2.48,24.71-2.67,1.61-.12,3.23-.43,4.55-1.42.73-.55,1.28-1.28,1.5-2.18,1.28-5.26-.1-10.01-.1-10.01-2.59-8.07-20.98-21.23-20.98-21.23-18.53-15.49-24.67-35.56-24.67-35.56-1.27-4.5-1.85-9.5-1.94-11.15-.1-1.9-.05-3.8.06-5.7.1-1.61.24-3.39.67-4.94.26-.93.52-1.54,1.05-2.2s1.12-1.24,1.74-1.79c1.19-1.04,2.5-1.93,3.87-2.72.62-.35,1.25-.7,1.89-.99,3.94-2.2,7.13.18,7.13.18,8.33,6.92,13.25,8.67,13.25,8.67,5.12,2.87,9.58,11.95,9.58,11.95,3.5,5.96,8.54,10.83,8.54,10.83,3.89,3.81,3.66-1.26,3.66-1.26-.23-4.54-2.27-8.06-2.27-8.06-3.1-6.77-3.26-14.97-3.26-14.97,5.31-.24,3.12-6.04,3.12-6.04-3.72-7.64-3.31-9.04-3.31-9.04-.65-9.78-16.82-17.89-16.82-17.89-24.08-10.34-42.18,8.72-42.18,8.72-3.47,3.64-6.57,7.66-8.95,12.1-7.15,13.34-4.24,29.5.31,43.18.98,2.94,2.09,5.84,3.34,8.68,1.52,3.45,3.38,6.73,4.91,10.17.4.89.78,1.8.95,2.76.03.15.04.34-.09.43-.16.12-.38-.03-.53-.17-1.68-1.64-3.04-3.58-4.38-5.51-2.76-3.97-5.39-8.07-8.48-11.79-2.01-2.42-4.16-4.73-6.4-6.95-1.72-1.69-3.5-3.32-5.34-4.89s-3.57-3.12-5.57-4.32c-1.21-.72-2.53-1.23-3.8-1.86s-2.53-1.35-3.79-2.04c-1.13-.62-2.24-1.25-3.35-1.9s-2.18-1.18-3.18-1.91c-.78-.57-1.49-1.23-2.23-1.84-1.83-1.52-4.02-2.63-6.2-3.54-1.69-.71-3.43-1.29-5.19-1.78s-3.41-.86-5.15-1.17c-1.52-.27-3.06-.49-4.6-.63-1.18-.11-2.37-.18-3.56-.16-5.58.1-4.46,2.69-4.46,2.69.88,2.35,3.43,4.46,3.43,4.46,2.45,1.86.39,2.2.39,2.2-1.96.44-.98,1.13-.98,1.13.49.31.99.65,1.37,1.09.18.2.37.47.34.76-.05.45-.56.62-.93.74-.44.15-.91.22-1.37.23-.67,0-1.28-.17-1.91-.37-1.96-.63-3.9-1.16-5.95-1.43-2.37-.31-4.78-.37-7.17-.34-1.61.02-3.22.09-4.82.21-1.45.1-2.89.24-4.33.4-1.16.13-2.31.28-3.46.45-.43.06-.86.13-1.29.2-1.49.24-2.92.74-4.45.82-.25.01-.5.02-.75.02-1.15,0-2.3-.2-3.45-.29s-2.34-.16-3.51-.2c-.93-.04-1.87-.06-2.8-.09-.99-.02-1.98-.04-2.96-.05s-1.99-.02-2.99-.03-1.91,0-2.87,0c-.87,0-1.74,0-2.61,0-.74,0-1.48,0-2.22.01-.98,0-1.96.01-2.93.02-.31,0-.68-.05-.95.14-.2.14-.25.38-.19.61.06.22.18.43.32.61l2.24,2.84c-5.34-.64-16.73,3.68-16.73,3.68-2.47,1.13-1.1,2.4-1.1,2.4,1.45,1.63-.49,1.56-.49,1.56-.77-.03-1.57.12-2.32.3-1.37.34-2.68.88-3.95,1.49s-2.5,1.28-3.7,2.01c-.9.54-1.79,1.11-2.67,1.71-1.2.82-2.35,1.91-3.91,1.8-.44-.03-.89-.13-1.27-.36-.35-.21-.65-.5-.96-.78-1.06-.95-2.26-1.75-3.44-2.55-.38-.26-.76-.51-1.14-.77-.4-.27-.81-.53-1.21-.8s-.84-.55-1.26-.82-.87-.56-1.3-.83-.88-.56-1.32-.84-.88-.55-1.32-.83-.87-.54-1.3-.81-.84-.52-1.26-.78-.8-.49-1.21-.74c-.38-.23-.75-.46-1.13-.69-.35-.21-.69-.42-1.04-.63-.31-.19-.62-.38-.93-.56-.27-.16-.53-.32-.8-.48-.22-.13-.44-.26-.66-.39-.16-.1-.33-.2-.49-.29-.1-.06-.21-.12-.31-.18-.04-.02-.07-.04-.11-.06-6.35-4.25-4.55,2.15-4.55,2.15.9,3.65,4.12,10.6,4.12,10.6,1.8,3.69.47,2.45.47,2.45l-4.11-3.45c-3.09-2.19-1.63.88-1.63.88,1.24,3.05,2.96,5.45,2.96,5.45ZM239.52,82.34c0-1.34,1.08-2.42,2.42-2.42s2.42,1.08,2.42,2.42-1.08,2.42-2.42,2.42-2.42-1.08-2.42-2.42Z"/>
</svg>